<?xml version="1.0" encoding="UTF-8" standalone="no"?>
<!DOCTYPE svg PUBLIC "-//W3C//DTD SVG 1.1//EN"
 "http://www.w3.org/Graphics/SVG/1.1/DTD/svg11.dtd">
<!-- Generated by graphviz version 2.40.1 (20161225.0304)
 -->
<!-- Title: G Pages: 1 -->
<svg width="888pt" height="462pt"
 viewBox="0.00 0.00 888.00 462.00" xmlns="http://www.w3.org/2000/svg" xmlns:xlink="http://www.w3.org/1999/xlink">
<g id="graph0" class="graph" transform="scale(1 1) rotate(0) translate(4 458)">
<title>G</title>
<polygon fill="#ffffff" stroke="transparent" points="-4,4 -4,-458 884,-458 884,4 -4,4"/>
<!-- 0 -->
<g id="node1" class="node">
<title>0</title>
<polygon fill="none" stroke="#000000" points="59,-238 5,-238 5,-216 59,-216 59,-238"/>
<text text-anchor="middle" x="32" y="-222.8" font-family="Times,serif" font-size="14.00" fill="#000000">The</text>
</g>
<!-- 1 -->
<g id="node2" class="node">
<title>1</title>
<polygon fill="none" stroke="#000000" points="140,-310 86,-310 86,-288 140,-288 140,-310"/>
<text text-anchor="middle" x="113" y="-294.8" font-family="Times,serif" font-size="14.00" fill="#000000">rules</text>
</g>
<!-- 1&#45;&gt;0 -->
<g id="edge3" class="edge">
<title>1&#45;&gt;0</title>
<path fill="none" stroke="#000000" d="M100.3438,-287.75C86.4343,-275.3861 64.0323,-255.4731 48.6935,-241.8386"/>
<polygon fill="#000000" stroke="#000000" points="44.5674,-238.171 49.7993,-239.8112 46.4359,-239.8319 48.3044,-241.4929 48.3044,-241.4929 48.3044,-241.4929 46.4359,-239.8319 46.8096,-243.1745 44.5674,-238.171 44.5674,-238.171"/>
<text text-anchor="middle" x="88.5518" y="-258.8" font-family="Times,serif" font-size="14.00" fill="#000000">det</text>
</g>
<!-- 2 -->
<g id="node3" class="node">
<title>2</title>
<polygon fill="none" stroke="#000000" points="149.266,-238 76.734,-238 76.734,-216 149.266,-216 149.266,-238"/>
<text text-anchor="middle" x="113" y="-222.8" font-family="Times,serif" font-size="14.00" fill="#000000">governing</text>
</g>
<!-- 1&#45;&gt;2 -->
<g id="edge4" class="edge">
<title>1&#45;&gt;2</title>
<path fill="none" stroke="#000000" d="M113,-287.75C113,-275.8786 113,-257.0476 113,-243.4971"/>
<polygon fill="#000000" stroke="#000000" points="113,-238.4086 115.2501,-243.4086 113,-240.9086 113.0001,-243.4086 113.0001,-243.4086 113.0001,-243.4086 113,-240.9086 110.7501,-243.4087 113,-238.4086 113,-238.4086"/>
<text text-anchor="middle" x="121.1587" y="-258.8" font-family="Times,serif" font-size="14.00" fill="#000000">acl</text>
</g>
<!-- 5 -->
<g id="node6" class="node">
<title>5</title>
<polygon fill="none" stroke="#000000" points="145.4795,-166 80.5205,-166 80.5205,-144 145.4795,-144 145.4795,-166"/>
<text text-anchor="middle" x="113" y="-150.8" font-family="Times,serif" font-size="14.00" fill="#000000">structure</text>
</g>
<!-- 2&#45;&gt;5 -->
<g id="edge5" class="edge">
<title>2&#45;&gt;5</title>
<path fill="none" stroke="#000000" d="M113,-215.75C113,-203.8786 113,-185.0476 113,-171.4971"/>
<polygon fill="#000000" stroke="#000000" points="113,-166.4086 115.2501,-171.4086 113,-168.9086 113.0001,-171.4086 113.0001,-171.4086 113.0001,-171.4086 113,-168.9086 110.7501,-171.4087 113,-166.4086 113,-166.4086"/>
<text text-anchor="middle" x="125.4448" y="-186.8" font-family="Times,serif" font-size="14.00" fill="#000000">dobj</text>
</g>
<!-- 3 -->
<g id="node4" class="node">
<title>3</title>
<polygon fill="none" stroke="#000000" points="54,-94 0,-94 0,-72 54,-72 54,-94"/>
<text text-anchor="middle" x="27" y="-78.8" font-family="Times,serif" font-size="14.00" fill="#000000">the</text>
</g>
<!-- 4 -->
<g id="node5" class="node">
<title>4</title>
<polygon fill="none" stroke="#000000" points="154.0625,-94 71.9375,-94 71.9375,-72 154.0625,-72 154.0625,-94"/>
<text text-anchor="middle" x="113" y="-78.8" font-family="Times,serif" font-size="14.00" fill="#000000">hierarchical</text>
</g>
<!-- 5&#45;&gt;3 -->
<g id="edge6" class="edge">
<title>5&#45;&gt;3</title>
<path fill="none" stroke="#000000" d="M99.5625,-143.75C84.6682,-131.2804 60.6023,-111.1322 44.308,-97.4904"/>
<polygon fill="#000000" stroke="#000000" points="40.3431,-94.171 45.6213,-95.6555 42.26,-95.7759 44.177,-97.3807 44.177,-97.3807 44.177,-97.3807 42.26,-95.7759 42.7326,-99.1059 40.3431,-94.171 40.3431,-94.171"/>
<text text-anchor="middle" x="86.5518" y="-114.8" font-family="Times,serif" font-size="14.00" fill="#000000">det</text>
</g>
<!-- 5&#45;&gt;4 -->
<g id="edge7" class="edge">
<title>5&#45;&gt;4</title>
<path fill="none" stroke="#000000" d="M113,-143.75C113,-131.8786 113,-113.0476 113,-99.4971"/>
<polygon fill="#000000" stroke="#000000" points="113,-94.4086 115.2501,-99.4086 113,-96.9086 113.0001,-99.4086 113.0001,-99.4086 113.0001,-99.4086 113,-96.9086 110.7501,-99.4087 113,-94.4086 113,-94.4086"/>
<text text-anchor="middle" x="128.5518" y="-114.8" font-family="Times,serif" font-size="14.00" fill="#000000">amod</text>
</g>
<!-- 8 -->
<g id="node9" class="node">
<title>8</title>
<polygon fill="none" stroke="#000000" points="236.1937,-94 171.8063,-94 171.8063,-72 236.1937,-72 236.1937,-94"/>
<text text-anchor="middle" x="204" y="-78.8" font-family="Times,serif" font-size="14.00" fill="#000000">sentence</text>
</g>
<!-- 5&#45;&gt;8 -->
<g id="edge8" class="edge">
<title>5&#45;&gt;8</title>
<path fill="none" stroke="#000000" d="M127.2188,-143.75C142.979,-131.2804 168.4441,-111.1322 185.6857,-97.4904"/>
<polygon fill="#000000" stroke="#000000" points="189.8811,-94.171 187.3561,-99.038 187.9205,-95.7222 185.96,-97.2734 185.96,-97.2734 185.96,-97.2734 187.9205,-95.7222 184.5639,-95.5089 189.8811,-94.171 189.8811,-94.171"/>
<text text-anchor="middle" x="182.9448" y="-114.8" font-family="Times,serif" font-size="14.00" fill="#000000">nmod</text>
</g>
<!-- 6 -->
<g id="node7" class="node">
<title>6</title>
<polygon fill="none" stroke="#000000" points="195,-22 141,-22 141,0 195,0 195,-22"/>
<text text-anchor="middle" x="168" y="-6.8" font-family="Times,serif" font-size="14.00" fill="#000000">of</text>
</g>
<!-- 7 -->
<g id="node8" class="node">
<title>7</title>
<polygon fill="none" stroke="#000000" points="267,-22 213,-22 213,0 267,0 267,-22"/>
<text text-anchor="middle" x="240" y="-6.8" font-family="Times,serif" font-size="14.00" fill="#000000">a</text>
</g>
<!-- 8&#45;&gt;6 -->
<g id="edge9" class="edge">
<title>8&#45;&gt;6</title>
<path fill="none" stroke="#000000" d="M198.375,-71.75C192.3868,-59.7735 182.8569,-40.7138 176.0693,-27.1386"/>
<polygon fill="#000000" stroke="#000000" points="173.7043,-22.4086 177.9529,-25.8745 174.8224,-24.6447 175.9404,-26.8808 175.9404,-26.8808 175.9404,-26.8808 174.8224,-24.6447 173.928,-27.887 173.7043,-22.4086 173.7043,-22.4086"/>
<text text-anchor="middle" x="202.0449" y="-42.8" font-family="Times,serif" font-size="14.00" fill="#000000">case</text>
</g>
<!-- 8&#45;&gt;7 -->
<g id="edge10" class="edge">
<title>8&#45;&gt;7</title>
<path fill="none" stroke="#000000" d="M209.625,-71.75C215.6132,-59.7735 225.1431,-40.7138 231.9307,-27.1386"/>
<polygon fill="#000000" stroke="#000000" points="234.2957,-22.4086 234.072,-27.887 233.1776,-24.6447 232.0596,-26.8808 232.0596,-26.8808 232.0596,-26.8808 233.1776,-24.6447 230.0471,-25.8745 234.2957,-22.4086 234.2957,-22.4086"/>
<text text-anchor="middle" x="234.5518" y="-42.8" font-family="Times,serif" font-size="14.00" fill="#000000">det</text>
</g>
<!-- 9 -->
<g id="node10" class="node">
<title>9</title>
<polygon fill="none" stroke="#000000" points="219,-310 165,-310 165,-288 219,-288 219,-310"/>
<text text-anchor="middle" x="192" y="-294.8" font-family="Times,serif" font-size="14.00" fill="#000000">are</text>
</g>
<!-- 10 -->
<g id="node11" class="node">
<title>10</title>
<polygon fill="none" stroke="#000000" points="254,-382 200,-382 200,-360 254,-360 254,-382"/>
<text text-anchor="middle" x="227" y="-366.8" font-family="Times,serif" font-size="14.00" fill="#000000">called</text>
</g>
<!-- 10&#45;&gt;1 -->
<g id="edge11" class="edge">
<title>10&#45;&gt;1</title>
<path fill="none" stroke="#000000" d="M199.6656,-368.6317C179.0535,-365.5413 151.2343,-358.4182 132.5518,-342 124.5475,-334.9659 119.6316,-323.9944 116.7311,-314.8948"/>
<polygon fill="#000000" stroke="#000000" points="115.3202,-310.0689 118.8829,-314.2366 116.0218,-312.4684 116.7233,-314.868 116.7233,-314.868 116.7233,-314.868 116.0218,-312.4684 114.5637,-315.4994 115.3202,-310.0689 115.3202,-310.0689"/>
<text text-anchor="middle" x="160.2241" y="-330.8" font-family="Times,serif" font-size="14.00" fill="#000000">nsubjpass</text>
</g>
<!-- 10&#45;&gt;9 -->
<g id="edge12" class="edge">
<title>10&#45;&gt;9</title>
<path fill="none" stroke="#000000" d="M209.9589,-359.9337C204.0676,-355.1668 198.0923,-349.0574 194.6758,-342 190.7567,-333.9044 189.929,-323.9266 190.1532,-315.621"/>
<polygon fill="#000000" stroke="#000000" points="190.4514,-310.1819 192.4242,-315.2976 190.3145,-312.6781 190.1776,-315.1744 190.1776,-315.1744 190.1776,-315.1744 190.3145,-312.6781 187.931,-315.0512 190.4514,-310.1819 190.4514,-310.1819"/>
<text text-anchor="middle" x="217.1621" y="-330.8" font-family="Times,serif" font-size="14.00" fill="#000000">auxpass</text>
</g>
<!-- 12 -->
<g id="node13" class="node">
<title>12</title>
<polygon fill="none" stroke="#000000" points="291,-310 237,-310 237,-288 291,-288 291,-310"/>
<text text-anchor="middle" x="264" y="-294.8" font-family="Times,serif" font-size="14.00" fill="#000000">syntax</text>
</g>
<!-- 10&#45;&gt;12 -->
<g id="edge13" class="edge">
<title>10&#45;&gt;12</title>
<path fill="none" stroke="#000000" d="M232.7813,-359.75C238.9358,-347.7735 248.7304,-328.7138 255.7066,-315.1386"/>
<polygon fill="#000000" stroke="#000000" points="258.1372,-310.4086 257.8531,-315.8842 256.9945,-312.6322 255.8518,-314.8558 255.8518,-314.8558 255.8518,-314.8558 256.9945,-312.6322 253.8506,-313.8274 258.1372,-310.4086 258.1372,-310.4086"/>
<text text-anchor="middle" x="268.0518" y="-330.8" font-family="Times,serif" font-size="14.00" fill="#000000">xcomp</text>
</g>
<!-- 16 -->
<g id="node17" class="node">
<title>16</title>
<polygon fill="none" stroke="#000000" points="363,-310 309,-310 309,-288 363,-288 363,-310"/>
<text text-anchor="middle" x="336" y="-294.8" font-family="Times,serif" font-size="14.00" fill="#000000">.</text>
</g>
<!-- 10&#45;&gt;16 -->
<g id="edge14" class="edge">
<title>10&#45;&gt;16</title>
<path fill="none" stroke="#000000" d="M254.222,-361.0544C266.0131,-356.154 279.6783,-349.6473 291,-342 302.7528,-334.0615 314.2829,-322.9603 322.7294,-314.026"/>
<polygon fill="#000000" stroke="#000000" points="326.1522,-310.3452 324.395,-315.539 324.4497,-312.176 322.7473,-314.0068 322.7473,-314.0068 322.7473,-314.0068 324.4497,-312.176 321.0996,-312.4745 326.1522,-310.3452 326.1522,-310.3452"/>
<text text-anchor="middle" x="324.5518" y="-330.8" font-family="Times,serif" font-size="14.00" fill="#000000">punct</text>
</g>
<!-- 11 -->
<g id="node12" class="node">
<title>11</title>
<polygon fill="none" stroke="#000000" points="221,-238 167,-238 167,-216 221,-216 221,-238"/>
<text text-anchor="middle" x="194" y="-222.8" font-family="Times,serif" font-size="14.00" fill="#000000">“</text>
</g>
<!-- 12&#45;&gt;11 -->
<g id="edge15" class="edge">
<title>12&#45;&gt;11</title>
<path fill="none" stroke="#000000" d="M249.9183,-287.9396C243.5779,-282.7326 236.1329,-276.2934 229.8965,-270 221.1905,-261.2145 212.2747,-250.5447 205.5065,-242.0316"/>
<polygon fill="#000000" stroke="#000000" points="202.3668,-238.0434 207.2275,-240.5803 203.9132,-240.0078 205.4596,-241.9721 205.4596,-241.9721 205.4596,-241.9721 203.9132,-240.0078 203.6917,-243.3639 202.3668,-238.0434 202.3668,-238.0434"/>
<text text-anchor="middle" x="245.5518" y="-258.8" font-family="Times,serif" font-size="14.00" fill="#000000">punct</text>
</g>
<!-- 13 -->
<g id="node14" class="node">
<title>13</title>
<polygon fill="none" stroke="#000000" points="293,-238 239,-238 239,-216 293,-216 293,-238"/>
<text text-anchor="middle" x="266" y="-222.8" font-family="Times,serif" font-size="14.00" fill="#000000">”</text>
</g>
<!-- 12&#45;&gt;13 -->
<g id="edge16" class="edge">
<title>12&#45;&gt;13</title>
<path fill="none" stroke="#000000" d="M264.3125,-287.75C264.6423,-275.8786 265.1653,-257.0476 265.5417,-243.4971"/>
<polygon fill="#000000" stroke="#000000" points="265.6831,-238.4086 267.7933,-243.4692 265.6136,-240.9077 265.5442,-243.4067 265.5442,-243.4067 265.5442,-243.4067 265.6136,-240.9077 263.295,-243.3442 265.6831,-238.4086 265.6831,-238.4086"/>
<text text-anchor="middle" x="281.5518" y="-258.8" font-family="Times,serif" font-size="14.00" fill="#000000">punct</text>
</g>
<!-- 15 -->
<g id="node16" class="node">
<title>15</title>
<polygon fill="none" stroke="#000000" points="384.5599,-238 311.4401,-238 311.4401,-216 384.5599,-216 384.5599,-238"/>
<text text-anchor="middle" x="348" y="-222.8" font-family="Times,serif" font-size="14.00" fill="#000000">linguistics</text>
</g>
<!-- 12&#45;&gt;15 -->
<g id="edge17" class="edge">
<title>12&#45;&gt;15</title>
<path fill="none" stroke="#000000" d="M278.6129,-287.9578C285.5024,-282.648 293.7765,-276.1199 301,-270 311.7798,-260.8671 323.505,-250.1412 332.5476,-241.6866"/>
<polygon fill="#000000" stroke="#000000" points="336.2482,-238.2134 334.1421,-243.2758 334.4253,-239.9243 332.6024,-241.6352 332.6024,-241.6352 332.6024,-241.6352 334.4253,-239.9243 331.0626,-239.9945 336.2482,-238.2134 336.2482,-238.2134"/>
<text text-anchor="middle" x="332.9448" y="-258.8" font-family="Times,serif" font-size="14.00" fill="#000000">nmod</text>
</g>
<!-- 14 -->
<g id="node15" class="node">
<title>14</title>
<polygon fill="none" stroke="#000000" points="375,-166 321,-166 321,-144 375,-144 375,-166"/>
<text text-anchor="middle" x="348" y="-150.8" font-family="Times,serif" font-size="14.00" fill="#000000">in</text>
</g>
<!-- 15&#45;&gt;14 -->
<g id="edge18" class="edge">
<title>15&#45;&gt;14</title>
<path fill="none" stroke="#000000" d="M348,-215.75C348,-203.8786 348,-185.0476 348,-171.4971"/>
<polygon fill="#000000" stroke="#000000" points="348,-166.4086 350.2501,-171.4086 348,-168.9086 348.0001,-171.4086 348.0001,-171.4086 348.0001,-171.4086 348,-168.9086 345.7501,-171.4087 348,-166.4086 348,-166.4086"/>
<text text-anchor="middle" x="360.0449" y="-186.8" font-family="Times,serif" font-size="14.00" fill="#000000">case</text>
</g>
<!-- 17 -->
<g id="node18" class="node">
<title>17</title>
<polygon fill="none" stroke="#000000" points="526.1104,-310 457.8896,-310 457.8896,-288 526.1104,-288 526.1104,-310"/>
<text text-anchor="middle" x="492" y="-294.8" font-family="Times,serif" font-size="14.00" fill="#000000">Knowing</text>
</g>
<!-- 19 -->
<g id="node20" class="node">
<title>19</title>
<polygon fill="none" stroke="#000000" points="524.4795,-238 459.5205,-238 459.5205,-216 524.4795,-216 524.4795,-238"/>
<text text-anchor="middle" x="492" y="-222.8" font-family="Times,serif" font-size="14.00" fill="#000000">structure</text>
</g>
<!-- 17&#45;&gt;19 -->
<g id="edge19" class="edge">
<title>17&#45;&gt;19</title>
<path fill="none" stroke="#000000" d="M492,-287.75C492,-275.8786 492,-257.0476 492,-243.4971"/>
<polygon fill="#000000" stroke="#000000" points="492,-238.4086 494.2501,-243.4086 492,-240.9086 492.0001,-243.4086 492.0001,-243.4086 492.0001,-243.4086 492,-240.9086 489.7501,-243.4087 492,-238.4086 492,-238.4086"/>
<text text-anchor="middle" x="504.4448" y="-258.8" font-family="Times,serif" font-size="14.00" fill="#000000">dobj</text>
</g>
<!-- 18 -->
<g id="node19" class="node">
<title>18</title>
<polygon fill="none" stroke="#000000" points="447,-166 393,-166 393,-144 447,-144 447,-166"/>
<text text-anchor="middle" x="420" y="-150.8" font-family="Times,serif" font-size="14.00" fill="#000000">the</text>
</g>
<!-- 19&#45;&gt;18 -->
<g id="edge20" class="edge">
<title>19&#45;&gt;18</title>
<path fill="none" stroke="#000000" d="M480.75,-215.75C468.4584,-203.4584 448.7058,-183.7058 435.0785,-170.0785"/>
<polygon fill="#000000" stroke="#000000" points="431.4086,-166.4086 436.5352,-168.3532 433.1764,-168.1764 434.9442,-169.9442 434.9442,-169.9442 434.9442,-169.9442 433.1764,-168.1764 433.3532,-171.5352 431.4086,-166.4086 431.4086,-166.4086"/>
<text text-anchor="middle" x="471.5518" y="-186.8" font-family="Times,serif" font-size="14.00" fill="#000000">det</text>
</g>
<!-- 22 -->
<g id="node23" class="node">
<title>22</title>
<polygon fill="none" stroke="#000000" points="529.1937,-166 464.8063,-166 464.8063,-144 529.1937,-144 529.1937,-166"/>
<text text-anchor="middle" x="497" y="-150.8" font-family="Times,serif" font-size="14.00" fill="#000000">sentence</text>
</g>
<!-- 19&#45;&gt;22 -->
<g id="edge21" class="edge">
<title>19&#45;&gt;22</title>
<path fill="none" stroke="#000000" d="M492.7813,-215.75C493.6057,-203.8786 494.9134,-185.0476 495.8544,-171.4971"/>
<polygon fill="#000000" stroke="#000000" points="496.2077,-166.4086 498.1059,-171.5525 496.0345,-168.9026 495.8613,-171.3966 495.8613,-171.3966 495.8613,-171.3966 496.0345,-168.9026 493.6167,-171.2407 496.2077,-166.4086 496.2077,-166.4086"/>
<text text-anchor="middle" x="510.9448" y="-186.8" font-family="Times,serif" font-size="14.00" fill="#000000">nmod</text>
</g>
<!-- 20 -->
<g id="node21" class="node">
<title>20</title>
<polygon fill="none" stroke="#000000" points="460,-94 406,-94 406,-72 460,-72 460,-94"/>
<text text-anchor="middle" x="433" y="-78.8" font-family="Times,serif" font-size="14.00" fill="#000000">of</text>
</g>
<!-- 21 -->
<g id="node22" class="node">
<title>21</title>
<polygon fill="none" stroke="#000000" points="532,-94 478,-94 478,-72 532,-72 532,-94"/>
<text text-anchor="middle" x="505" y="-78.8" font-family="Times,serif" font-size="14.00" fill="#000000">a</text>
</g>
<!-- 22&#45;&gt;20 -->
<g id="edge22" class="edge">
<title>22&#45;&gt;20</title>
<path fill="none" stroke="#000000" d="M487,-143.75C476.1675,-131.5634 458.8159,-112.0429 446.7149,-98.4292"/>
<polygon fill="#000000" stroke="#000000" points="443.141,-94.4086 448.1445,-96.6509 444.8019,-96.2771 446.4628,-98.1457 446.4628,-98.1457 446.4628,-98.1457 444.8019,-96.2771 444.7812,-99.6405 443.141,-94.4086 443.141,-94.4086"/>
<text text-anchor="middle" x="483.0449" y="-114.8" font-family="Times,serif" font-size="14.00" fill="#000000">case</text>
</g>
<!-- 22&#45;&gt;21 -->
<g id="edge23" class="edge">
<title>22&#45;&gt;21</title>
<path fill="none" stroke="#000000" d="M498.25,-143.75C499.569,-131.8786 501.6614,-113.0476 503.167,-99.4971"/>
<polygon fill="#000000" stroke="#000000" points="503.7324,-94.4086 505.4164,-99.6265 503.4563,-96.8933 503.1801,-99.378 503.1801,-99.378 503.1801,-99.378 503.4563,-96.8933 500.9439,-99.1295 503.7324,-94.4086 503.7324,-94.4086"/>
<text text-anchor="middle" x="510.5518" y="-114.8" font-family="Times,serif" font-size="14.00" fill="#000000">det</text>
</g>
<!-- 23 -->
<g id="node24" class="node">
<title>23</title>
<polygon fill="none" stroke="#000000" points="610,-382 556,-382 556,-360 610,-360 610,-382"/>
<text text-anchor="middle" x="583" y="-366.8" font-family="Times,serif" font-size="14.00" fill="#000000">helps</text>
</g>
<!-- 23&#45;&gt;17 -->
<g id="edge24" class="edge">
<title>23&#45;&gt;17</title>
<path fill="none" stroke="#000000" d="M568.7813,-359.75C553.021,-347.2804 527.5559,-327.1322 510.3143,-313.4904"/>
<polygon fill="#000000" stroke="#000000" points="506.1189,-310.171 511.4361,-311.5089 508.0795,-311.7222 510.04,-313.2734 510.04,-313.2734 510.04,-313.2734 508.0795,-311.7222 508.6439,-315.038 506.1189,-310.171 506.1189,-310.171"/>
<text text-anchor="middle" x="560.7759" y="-330.8" font-family="Times,serif" font-size="14.00" fill="#000000">csubj</text>
</g>
<!-- 25 -->
<g id="node26" class="node">
<title>25</title>
<polygon fill="none" stroke="#000000" points="621.9289,-310 544.0711,-310 544.0711,-288 621.9289,-288 621.9289,-310"/>
<text text-anchor="middle" x="583" y="-294.8" font-family="Times,serif" font-size="14.00" fill="#000000">understand</text>
</g>
<!-- 23&#45;&gt;25 -->
<g id="edge25" class="edge">
<title>23&#45;&gt;25</title>
<path fill="none" stroke="#000000" d="M583,-359.75C583,-347.8786 583,-329.0476 583,-315.4971"/>
<polygon fill="#000000" stroke="#000000" points="583,-310.4086 585.2501,-315.4086 583,-312.9086 583.0001,-315.4086 583.0001,-315.4086 583.0001,-315.4086 583,-312.9086 580.7501,-315.4087 583,-310.4086 583,-310.4086"/>
<text text-anchor="middle" x="602.0518" y="-330.8" font-family="Times,serif" font-size="14.00" fill="#000000">xcomp</text>
</g>
<!-- 37 -->
<g id="node38" class="node">
<title>37</title>
<polygon fill="none" stroke="#000000" points="694,-310 640,-310 640,-288 694,-288 694,-310"/>
<text text-anchor="middle" x="667" y="-294.8" font-family="Times,serif" font-size="14.00" fill="#000000">.</text>
</g>
<!-- 23&#45;&gt;37 -->
<g id="edge26" class="edge">
<title>23&#45;&gt;37</title>
<path fill="none" stroke="#000000" d="M600.7164,-359.8694C608.4269,-354.7496 617.4142,-348.399 625,-342 635.1452,-333.4421 645.5767,-322.7738 653.5058,-314.2045"/>
<polygon fill="#000000" stroke="#000000" points="657.1851,-310.1849 655.4689,-315.3923 655.4971,-312.029 653.8091,-313.8732 653.8091,-313.8732 653.8091,-313.8732 655.4971,-312.029 652.1494,-312.354 657.1851,-310.1849 657.1851,-310.1849"/>
<text text-anchor="middle" x="654.5518" y="-330.8" font-family="Times,serif" font-size="14.00" fill="#000000">punct</text>
</g>
<!-- 24 -->
<g id="node25" class="node">
<title>24</title>
<polygon fill="none" stroke="#000000" points="603,-238 549,-238 549,-216 603,-216 603,-238"/>
<text text-anchor="middle" x="576" y="-222.8" font-family="Times,serif" font-size="14.00" fill="#000000">to</text>
</g>
<!-- 25&#45;&gt;24 -->
<g id="edge27" class="edge">
<title>25&#45;&gt;24</title>
<path fill="none" stroke="#000000" d="M581.9063,-287.75C580.7521,-275.8786 578.9213,-257.0476 577.6039,-243.4971"/>
<polygon fill="#000000" stroke="#000000" points="577.1092,-238.4086 579.8325,-243.1674 577.3511,-240.8969 577.5931,-243.3852 577.5931,-243.3852 577.5931,-243.3852 577.3511,-240.8969 575.3536,-243.6029 577.1092,-238.4086 577.1092,-238.4086"/>
<text text-anchor="middle" x="595.3828" y="-258.8" font-family="Times,serif" font-size="14.00" fill="#000000">mark</text>
</g>
<!-- 33 -->
<g id="node34" class="node">
<title>33</title>
<polygon fill="none" stroke="#000000" points="675.0831,-238 620.9169,-238 620.9169,-216 675.0831,-216 675.0831,-238"/>
<text text-anchor="middle" x="648" y="-222.8" font-family="Times,serif" font-size="14.00" fill="#000000">related</text>
</g>
<!-- 25&#45;&gt;33 -->
<g id="edge28" class="edge">
<title>25&#45;&gt;33</title>
<path fill="none" stroke="#000000" d="M595.7816,-287.837C601.5412,-282.6092 608.3109,-276.1823 614,-270 621.9387,-261.3731 630.1101,-251.0919 636.4519,-242.7461"/>
<polygon fill="#000000" stroke="#000000" points="639.7738,-238.3315 638.5653,-243.6796 638.2706,-240.3291 636.7674,-242.3267 636.7674,-242.3267 636.7674,-242.3267 638.2706,-240.3291 634.9696,-240.9739 639.7738,-238.3315 639.7738,-238.3315"/>
<text text-anchor="middle" x="643.6587" y="-258.8" font-family="Times,serif" font-size="14.00" fill="#000000">ccomp</text>
</g>
<!-- 26 -->
<g id="node27" class="node">
<title>26</title>
<polygon fill="none" stroke="#000000" points="601,-166 547,-166 547,-144 601,-144 601,-166"/>
<text text-anchor="middle" x="574" y="-150.8" font-family="Times,serif" font-size="14.00" fill="#000000">how</text>
</g>
<!-- 27 -->
<g id="node28" class="node">
<title>27</title>
<polygon fill="none" stroke="#000000" points="637,-94 583,-94 583,-72 637,-72 637,-94"/>
<text text-anchor="middle" x="610" y="-78.8" font-family="Times,serif" font-size="14.00" fill="#000000">the</text>
</g>
<!-- 28 -->
<g id="node29" class="node">
<title>28</title>
<polygon fill="none" stroke="#000000" points="673,-166 619,-166 619,-144 673,-144 673,-166"/>
<text text-anchor="middle" x="646" y="-150.8" font-family="Times,serif" font-size="14.00" fill="#000000">words</text>
</g>
<!-- 28&#45;&gt;27 -->
<g id="edge29" class="edge">
<title>28&#45;&gt;27</title>
<path fill="none" stroke="#000000" d="M639.5345,-143.8103C636.5128,-138.4682 632.9227,-131.9555 629.8965,-126 625.3912,-117.1336 620.7034,-107.0508 617.0105,-98.8782"/>
<polygon fill="#000000" stroke="#000000" points="614.8502,-94.0644 618.9502,-97.7049 615.8738,-96.3453 616.8974,-98.6261 616.8974,-98.6261 616.8974,-98.6261 615.8738,-96.3453 614.8447,-99.5474 614.8502,-94.0644 614.8502,-94.0644"/>
<text text-anchor="middle" x="637.5518" y="-114.8" font-family="Times,serif" font-size="14.00" fill="#000000">det</text>
</g>
<!-- 31 -->
<g id="node32" class="node">
<title>31</title>
<polygon fill="none" stroke="#000000" points="719.1937,-94 654.8063,-94 654.8063,-72 719.1937,-72 719.1937,-94"/>
<text text-anchor="middle" x="687" y="-78.8" font-family="Times,serif" font-size="14.00" fill="#000000">sentence</text>
</g>
<!-- 28&#45;&gt;31 -->
<g id="edge30" class="edge">
<title>28&#45;&gt;31</title>
<path fill="none" stroke="#000000" d="M652.4063,-143.75C659.286,-131.6685 670.2704,-112.3789 678.0127,-98.7826"/>
<polygon fill="#000000" stroke="#000000" points="680.5034,-94.4086 679.9844,-99.867 679.2663,-96.5811 678.0292,-98.7536 678.0292,-98.7536 678.0292,-98.7536 679.2663,-96.5811 676.074,-97.6401 680.5034,-94.4086 680.5034,-94.4086"/>
<text text-anchor="middle" x="685.9448" y="-114.8" font-family="Times,serif" font-size="14.00" fill="#000000">nmod</text>
</g>
<!-- 29 -->
<g id="node30" class="node">
<title>29</title>
<polygon fill="none" stroke="#000000" points="678,-22 624,-22 624,0 678,0 678,-22"/>
<text text-anchor="middle" x="651" y="-6.8" font-family="Times,serif" font-size="14.00" fill="#000000">in</text>
</g>
<!-- 30 -->
<g id="node31" class="node">
<title>30</title>
<polygon fill="none" stroke="#000000" points="750,-22 696,-22 696,0 750,0 750,-22"/>
<text text-anchor="middle" x="723" y="-6.8" font-family="Times,serif" font-size="14.00" fill="#000000">a</text>
</g>
<!-- 31&#45;&gt;29 -->
<g id="edge31" class="edge">
<title>31&#45;&gt;29</title>
<path fill="none" stroke="#000000" d="M681.375,-71.75C675.3868,-59.7735 665.8569,-40.7138 659.0693,-27.1386"/>
<polygon fill="#000000" stroke="#000000" points="656.7043,-22.4086 660.9529,-25.8745 657.8224,-24.6447 658.9404,-26.8808 658.9404,-26.8808 658.9404,-26.8808 657.8224,-24.6447 656.928,-27.887 656.7043,-22.4086 656.7043,-22.4086"/>
<text text-anchor="middle" x="684.0449" y="-42.8" font-family="Times,serif" font-size="14.00" fill="#000000">case</text>
</g>
<!-- 31&#45;&gt;30 -->
<g id="edge32" class="edge">
<title>31&#45;&gt;30</title>
<path fill="none" stroke="#000000" d="M692.625,-71.75C698.6132,-59.7735 708.1431,-40.7138 714.9307,-27.1386"/>
<polygon fill="#000000" stroke="#000000" points="717.2957,-22.4086 717.072,-27.887 716.1776,-24.6447 715.0596,-26.8808 715.0596,-26.8808 715.0596,-26.8808 716.1776,-24.6447 713.0471,-25.8745 717.2957,-22.4086 717.2957,-22.4086"/>
<text text-anchor="middle" x="716.5518" y="-42.8" font-family="Times,serif" font-size="14.00" fill="#000000">det</text>
</g>
<!-- 32 -->
<g id="node33" class="node">
<title>32</title>
<polygon fill="none" stroke="#000000" points="745,-166 691,-166 691,-144 745,-144 745,-166"/>
<text text-anchor="middle" x="718" y="-150.8" font-family="Times,serif" font-size="14.00" fill="#000000">are</text>
</g>
<!-- 33&#45;&gt;26 -->
<g id="edge33" class="edge">
<title>33&#45;&gt;26</title>
<path fill="none" stroke="#000000" d="M622.1248,-215.961C613.3666,-211.3336 604.0122,-205.3096 596.8965,-198 589.4298,-190.33 583.7497,-179.7339 579.9146,-170.9797"/>
<polygon fill="#000000" stroke="#000000" points="577.9742,-166.336 581.9781,-170.0819 578.9381,-168.6427 579.902,-170.9495 579.902,-170.9495 579.902,-170.9495 578.9381,-168.6427 577.826,-171.817 577.9742,-166.336 577.9742,-166.336"/>
<text text-anchor="middle" x="618.5518" y="-186.8" font-family="Times,serif" font-size="14.00" fill="#000000">advmod</text>
</g>
<!-- 33&#45;&gt;28 -->
<g id="edge34" class="edge">
<title>33&#45;&gt;28</title>
<path fill="none" stroke="#000000" d="M647.6875,-215.75C647.3577,-203.8786 646.8347,-185.0476 646.4583,-171.4971"/>
<polygon fill="#000000" stroke="#000000" points="646.3169,-166.4086 648.705,-171.3442 646.3864,-168.9077 646.4558,-171.4067 646.4558,-171.4067 646.4558,-171.4067 646.3864,-168.9077 644.2067,-171.4692 646.3169,-166.4086 646.3169,-166.4086"/>
<text text-anchor="middle" x="662.1689" y="-186.8" font-family="Times,serif" font-size="14.00" fill="#000000">nsubj</text>
</g>
<!-- 33&#45;&gt;32 -->
<g id="edge35" class="edge">
<title>33&#45;&gt;32</title>
<path fill="none" stroke="#000000" d="M661.5509,-215.8351C667.671,-210.6069 674.884,-204.1802 681,-198 689.6919,-189.217 698.7515,-178.7142 705.7306,-170.2873"/>
<polygon fill="#000000" stroke="#000000" points="708.9788,-166.3338 707.5432,-171.6255 707.3917,-168.2655 705.8047,-170.1971 705.8047,-170.1971 705.8047,-170.1971 707.3917,-168.2655 704.0662,-168.7687 708.9788,-166.3338 708.9788,-166.3338"/>
<text text-anchor="middle" x="703.1069" y="-186.8" font-family="Times,serif" font-size="14.00" fill="#000000">cop</text>
</g>
<!-- 36 -->
<g id="node37" class="node">
<title>36</title>
<polygon fill="none" stroke="#000000" points="817,-166 763,-166 763,-144 817,-144 817,-166"/>
<text text-anchor="middle" x="790" y="-150.8" font-family="Times,serif" font-size="14.00" fill="#000000">other</text>
</g>
<!-- 33&#45;&gt;36 -->
<g id="edge36" class="edge">
<title>33&#45;&gt;36</title>
<path fill="none" stroke="#000000" d="M675.2499,-216.5326C688.0976,-211.3487 703.5279,-204.7605 717,-198 734.7518,-189.0919 754.0868,-177.6177 768.3958,-168.763"/>
<polygon fill="#000000" stroke="#000000" points="772.6679,-166.1048 769.6113,-170.6567 770.5452,-167.4256 768.4226,-168.7464 768.4226,-168.7464 768.4226,-168.7464 770.5452,-167.4256 767.2339,-166.836 772.6679,-166.1048 772.6679,-166.1048"/>
<text text-anchor="middle" x="756.9448" y="-186.8" font-family="Times,serif" font-size="14.00" fill="#000000">nmod</text>
</g>
<!-- 34 -->
<g id="node35" class="node">
<title>34</title>
<polygon fill="none" stroke="#000000" points="808,-94 754,-94 754,-72 808,-72 808,-94"/>
<text text-anchor="middle" x="781" y="-78.8" font-family="Times,serif" font-size="14.00" fill="#000000">to</text>
</g>
<!-- 35 -->
<g id="node36" class="node">
<title>35</title>
<polygon fill="none" stroke="#000000" points="880,-94 826,-94 826,-72 880,-72 880,-94"/>
<text text-anchor="middle" x="853" y="-78.8" font-family="Times,serif" font-size="14.00" fill="#000000">each</text>
</g>
<!-- 36&#45;&gt;34 -->
<g id="edge37" class="edge">
<title>36&#45;&gt;34</title>
<path fill="none" stroke="#000000" d="M788.5938,-143.75C787.1098,-131.8786 784.756,-113.0476 783.0621,-99.4971"/>
<polygon fill="#000000" stroke="#000000" points="782.4261,-94.4086 785.279,-99.0909 782.7362,-96.8893 783.0463,-99.37 783.0463,-99.37 783.0463,-99.37 782.7362,-96.8893 780.8137,-99.6491 782.4261,-94.4086 782.4261,-94.4086"/>
<text text-anchor="middle" x="798.0449" y="-114.8" font-family="Times,serif" font-size="14.00" fill="#000000">case</text>
</g>
<!-- 36&#45;&gt;35 -->
<g id="edge38" class="edge">
<title>36&#45;&gt;35</title>
<path fill="none" stroke="#000000" d="M799.8438,-143.75C810.507,-131.5634 827.5875,-112.0429 839.4994,-98.4292"/>
<polygon fill="#000000" stroke="#000000" points="843.0175,-94.4086 841.4182,-99.6532 841.3712,-96.2901 839.7249,-98.1715 839.7249,-98.1715 839.7249,-98.1715 841.3712,-96.2901 838.0316,-96.6899 843.0175,-94.4086 843.0175,-94.4086"/>
<text text-anchor="middle" x="835.5518" y="-114.8" font-family="Times,serif" font-size="14.00" fill="#000000">det</text>
</g>
<!-- &#45;1 -->
<g id="node39" class="node">
<title>&#45;1</title>
<polygon fill="none" stroke="#000000" points="254,-454 200,-454 200,-432 254,-432 254,-454"/>
<text text-anchor="middle" x="227" y="-438.8" font-family="Times,serif" font-size="14.00" fill="#000000">S1</text>
</g>
<!-- &#45;1&#45;&gt;10 -->
<g id="edge1" class="edge">
<title>&#45;1&#45;&gt;10</title>
<path fill="none" stroke="#000000" d="M227,-431.75C227,-419.8786 227,-401.0476 227,-387.4971"/>
<polygon fill="#000000" stroke="#000000" points="227,-382.4086 229.2501,-387.4086 227,-384.9086 227.0001,-387.4086 227.0001,-387.4086 227.0001,-387.4086 227,-384.9086 224.7501,-387.4087 227,-382.4086 227,-382.4086"/>
<text text-anchor="middle" x="238.2759" y="-402.8" font-family="Times,serif" font-size="14.00" fill="#000000">root</text>
</g>
<!-- &#45;2 -->
<g id="node40" class="node">
<title>&#45;2</title>
<polygon fill="none" stroke="#000000" points="610,-454 556,-454 556,-432 610,-432 610,-454"/>
<text text-anchor="middle" x="583" y="-438.8" font-family="Times,serif" font-size="14.00" fill="#000000">S2</text>
</g>
<!-- &#45;2&#45;&gt;23 -->
<g id="edge2" class="edge">
<title>&#45;2&#45;&gt;23</title>
<path fill="none" stroke="#000000" d="M583,-431.75C583,-419.8786 583,-401.0476 583,-387.4971"/>
<polygon fill="#000000" stroke="#000000" points="583,-382.4086 585.2501,-387.4086 583,-384.9086 583.0001,-387.4086 583.0001,-387.4086 583.0001,-387.4086 583,-384.9086 580.7501,-387.4087 583,-382.4086 583,-382.4086"/>
<text text-anchor="middle" x="594.2759" y="-402.8" font-family="Times,serif" font-size="14.00" fill="#000000">root</text>
</g>
</g>
</svg>

