<?xml version="1.0" encoding="UTF-8" standalone="no"?>
<!DOCTYPE svg PUBLIC "-//W3C//DTD SVG 1.1//EN"
 "http://www.w3.org/Graphics/SVG/1.1/DTD/svg11.dtd">
<!-- Generated by graphviz version 2.40.1 (20161225.0304)
 -->
<!-- Title: G Pages: 1 -->
<svg width="134pt" height="318pt"
 viewBox="0.00 0.00 134.00 318.00" xmlns="http://www.w3.org/2000/svg" xmlns:xlink="http://www.w3.org/1999/xlink">
<g id="graph0" class="graph" transform="scale(1 1) rotate(0) translate(4 314)">
<title>G</title>
<polygon fill="#ffffff" stroke="transparent" points="-4,4 -4,-314 130,-314 130,4 -4,4"/>
<!-- 0 -->
<g id="node1" class="node">
<title>0</title>
<polygon fill="none" stroke="#000000" points="80,-238 26,-238 26,-216 80,-216 80,-238"/>
<text text-anchor="middle" x="53" y="-222.8" font-family="Times,serif" font-size="14.00" fill="#000000">Let</text>
</g>
<!-- 2 -->
<g id="node3" class="node">
<title>2</title>
<polygon fill="none" stroke="#000000" points="80,-166 26,-166 26,-144 80,-144 80,-166"/>
<text text-anchor="middle" x="53" y="-150.8" font-family="Times,serif" font-size="14.00" fill="#000000">make</text>
</g>
<!-- 0&#45;&gt;2 -->
<g id="edge2" class="edge">
<title>0&#45;&gt;2</title>
<path fill="none" stroke="#000000" d="M53,-215.75C53,-203.8786 53,-185.0476 53,-171.4971"/>
<polygon fill="#000000" stroke="#000000" points="53,-166.4086 55.2501,-171.4086 53,-168.9086 53.0001,-171.4086 53.0001,-171.4086 53.0001,-171.4086 53,-168.9086 50.7501,-171.4087 53,-166.4086 53,-166.4086"/>
<text text-anchor="middle" x="71.6587" y="-186.8" font-family="Times,serif" font-size="14.00" fill="#000000">ccomp</text>
</g>
<!-- 1 -->
<g id="node2" class="node">
<title>1</title>
<polygon fill="none" stroke="#000000" points="54,-94 0,-94 0,-72 54,-72 54,-94"/>
<text text-anchor="middle" x="27" y="-78.8" font-family="Times,serif" font-size="14.00" fill="#000000">&#39;s</text>
</g>
<!-- 2&#45;&gt;1 -->
<g id="edge3" class="edge">
<title>2&#45;&gt;1</title>
<path fill="none" stroke="#000000" d="M45.6783,-143.8063C42.5246,-138.5723 39.0262,-132.149 36.6621,-126 33.405,-117.5281 31.0917,-107.6746 29.5471,-99.539"/>
<polygon fill="#000000" stroke="#000000" points="28.5983,-94.2193 31.6913,-98.7465 29.0373,-96.6804 29.4762,-99.1416 29.4762,-99.1416 29.4762,-99.1416 29.0373,-96.6804 27.2612,-99.5367 28.5983,-94.2193 28.5983,-94.2193"/>
<text text-anchor="middle" x="52.1689" y="-114.8" font-family="Times,serif" font-size="14.00" fill="#000000">nsubj</text>
</g>
<!-- 4 -->
<g id="node5" class="node">
<title>4</title>
<polygon fill="none" stroke="#000000" points="126,-94 72,-94 72,-72 126,-72 126,-94"/>
<text text-anchor="middle" x="99" y="-78.8" font-family="Times,serif" font-size="14.00" fill="#000000">graph</text>
</g>
<!-- 2&#45;&gt;4 -->
<g id="edge4" class="edge">
<title>2&#45;&gt;4</title>
<path fill="none" stroke="#000000" d="M60.1875,-143.75C67.9063,-131.6685 80.2302,-112.3789 88.9167,-98.7826"/>
<polygon fill="#000000" stroke="#000000" points="91.7112,-94.4086 90.9152,-99.8335 90.3652,-96.5154 89.0192,-98.6221 89.0192,-98.6221 89.0192,-98.6221 90.3652,-96.5154 87.1231,-97.4107 91.7112,-94.4086 91.7112,-94.4086"/>
<text text-anchor="middle" x="93.4448" y="-114.8" font-family="Times,serif" font-size="14.00" fill="#000000">dobj</text>
</g>
<!-- 3 -->
<g id="node4" class="node">
<title>3</title>
<polygon fill="none" stroke="#000000" points="126,-22 72,-22 72,0 126,0 126,-22"/>
<text text-anchor="middle" x="99" y="-6.8" font-family="Times,serif" font-size="14.00" fill="#000000">a</text>
</g>
<!-- 4&#45;&gt;3 -->
<g id="edge5" class="edge">
<title>4&#45;&gt;3</title>
<path fill="none" stroke="#000000" d="M99,-71.75C99,-59.8786 99,-41.0476 99,-27.4971"/>
<polygon fill="#000000" stroke="#000000" points="99,-22.4086 101.2501,-27.4086 99,-24.9086 99.0001,-27.4086 99.0001,-27.4086 99.0001,-27.4086 99,-24.9086 96.7501,-27.4087 99,-22.4086 99,-22.4086"/>
<text text-anchor="middle" x="107.5518" y="-42.8" font-family="Times,serif" font-size="14.00" fill="#000000">det</text>
</g>
<!-- &#45;1 -->
<g id="node6" class="node">
<title>&#45;1</title>
<polygon fill="none" stroke="#000000" points="80,-310 26,-310 26,-288 80,-288 80,-310"/>
<text text-anchor="middle" x="53" y="-294.8" font-family="Times,serif" font-size="14.00" fill="#000000">S1</text>
</g>
<!-- &#45;1&#45;&gt;0 -->
<g id="edge1" class="edge">
<title>&#45;1&#45;&gt;0</title>
<path fill="none" stroke="#000000" d="M53,-287.75C53,-275.8786 53,-257.0476 53,-243.4971"/>
<polygon fill="#000000" stroke="#000000" points="53,-238.4086 55.2501,-243.4086 53,-240.9086 53.0001,-243.4086 53.0001,-243.4086 53.0001,-243.4086 53,-240.9086 50.7501,-243.4087 53,-238.4086 53,-238.4086"/>
<text text-anchor="middle" x="64.2759" y="-258.8" font-family="Times,serif" font-size="14.00" fill="#000000">root</text>
</g>
</g>
</svg>

