<?xml version="1.0" encoding="UTF-8" standalone="no"?>
<!DOCTYPE svg PUBLIC "-//W3C//DTD SVG 1.1//EN"
 "http://www.w3.org/Graphics/SVG/1.1/DTD/svg11.dtd">
<!-- Generated by graphviz version 2.40.1 (20161225.0304)
 -->
<!-- Title: G Pages: 1 -->
<svg width="1021pt" height="462pt"
 viewBox="0.00 0.00 1021.23 462.00" xmlns="http://www.w3.org/2000/svg" xmlns:xlink="http://www.w3.org/1999/xlink">
<g id="graph0" class="graph" transform="scale(1 1) rotate(0) translate(4 458)">
<title>G</title>
<polygon fill="#ffffff" stroke="transparent" points="-4,4 -4,-458 1017.2329,-458 1017.2329,4 -4,4"/>
<!-- 0 -->
<g id="node1" class="node">
<title>0</title>
<polygon fill="none" stroke="#000000" points="58.8448,-238 1.1552,-238 1.1552,-216 58.8448,-216 58.8448,-238"/>
<text text-anchor="middle" x="30" y="-222.8" font-family="Times,serif" font-size="14.00" fill="#000000">(0) The</text>
</g>
<!-- 1 -->
<g id="node2" class="node">
<title>1</title>
<polygon fill="none" stroke="#000000" points="154.5381,-310 91.4619,-310 91.4619,-288 154.5381,-288 154.5381,-310"/>
<text text-anchor="middle" x="123" y="-294.8" font-family="Times,serif" font-size="14.00" fill="#000000">(1) rules</text>
</g>
<!-- 1&#45;&gt;0 -->
<g id="edge3" class="edge">
<title>1&#45;&gt;0</title>
<path fill="none" stroke="#000000" d="M108.4688,-287.75C92.3622,-275.2804 66.3374,-255.1322 48.7168,-241.4904"/>
<polygon fill="#000000" stroke="#000000" points="44.4292,-238.171 49.7603,-239.4528 46.406,-239.7015 48.3828,-241.2319 48.3828,-241.2319 48.3828,-241.2319 46.406,-239.7015 47.0054,-243.011 44.4292,-238.171 44.4292,-238.171"/>
<text text-anchor="middle" x="93.5518" y="-258.8" font-family="Times,serif" font-size="14.00" fill="#000000">det</text>
</g>
<!-- 2 -->
<g id="node3" class="node">
<title>2</title>
<polygon fill="none" stroke="#000000" points="169.0907,-238 76.9093,-238 76.9093,-216 169.0907,-216 169.0907,-238"/>
<text text-anchor="middle" x="123" y="-222.8" font-family="Times,serif" font-size="14.00" fill="#000000">(2) governing</text>
</g>
<!-- 1&#45;&gt;2 -->
<g id="edge4" class="edge">
<title>1&#45;&gt;2</title>
<path fill="none" stroke="#000000" d="M123,-287.75C123,-275.8786 123,-257.0476 123,-243.4971"/>
<polygon fill="#000000" stroke="#000000" points="123,-238.4086 125.2501,-243.4086 123,-240.9086 123.0001,-243.4086 123.0001,-243.4086 123.0001,-243.4086 123,-240.9086 120.7501,-243.4087 123,-238.4086 123,-238.4086"/>
<text text-anchor="middle" x="131.1587" y="-258.8" font-family="Times,serif" font-size="14.00" fill="#000000">acl</text>
</g>
<!-- 5 -->
<g id="node6" class="node">
<title>5</title>
<polygon fill="none" stroke="#000000" points="165.3039,-166 80.6961,-166 80.6961,-144 165.3039,-144 165.3039,-166"/>
<text text-anchor="middle" x="123" y="-150.8" font-family="Times,serif" font-size="14.00" fill="#000000">(5) structure</text>
</g>
<!-- 2&#45;&gt;5 -->
<g id="edge5" class="edge">
<title>2&#45;&gt;5</title>
<path fill="none" stroke="#000000" d="M123,-215.75C123,-203.8786 123,-185.0476 123,-171.4971"/>
<polygon fill="#000000" stroke="#000000" points="123,-166.4086 125.2501,-171.4086 123,-168.9086 123.0001,-171.4086 123.0001,-171.4086 123.0001,-171.4086 123,-168.9086 120.7501,-171.4087 123,-166.4086 123,-166.4086"/>
<text text-anchor="middle" x="135.4448" y="-186.8" font-family="Times,serif" font-size="14.00" fill="#000000">dobj</text>
</g>
<!-- 3 -->
<g id="node4" class="node">
<title>3</title>
<polygon fill="none" stroke="#000000" points="54,-94 0,-94 0,-72 54,-72 54,-94"/>
<text text-anchor="middle" x="27" y="-78.8" font-family="Times,serif" font-size="14.00" fill="#000000">(3) the</text>
</g>
<!-- 4 -->
<g id="node5" class="node">
<title>4</title>
<polygon fill="none" stroke="#000000" points="173.8868,-94 72.1132,-94 72.1132,-72 173.8868,-72 173.8868,-94"/>
<text text-anchor="middle" x="123" y="-78.8" font-family="Times,serif" font-size="14.00" fill="#000000">(4) hierarchical</text>
</g>
<!-- 5&#45;&gt;3 -->
<g id="edge6" class="edge">
<title>5&#45;&gt;3</title>
<path fill="none" stroke="#000000" d="M108,-143.75C91.3738,-131.2804 64.5096,-111.1322 46.3206,-97.4904"/>
<polygon fill="#000000" stroke="#000000" points="41.8947,-94.171 47.2447,-95.371 43.8947,-95.671 45.8947,-97.171 45.8947,-97.171 45.8947,-97.171 43.8947,-95.671 44.5447,-98.971 41.8947,-94.171 41.8947,-94.171"/>
<text text-anchor="middle" x="92.5518" y="-114.8" font-family="Times,serif" font-size="14.00" fill="#000000">det</text>
</g>
<!-- 5&#45;&gt;4 -->
<g id="edge7" class="edge">
<title>5&#45;&gt;4</title>
<path fill="none" stroke="#000000" d="M123,-143.75C123,-131.8786 123,-113.0476 123,-99.4971"/>
<polygon fill="#000000" stroke="#000000" points="123,-94.4086 125.2501,-99.4086 123,-96.9086 123.0001,-99.4086 123.0001,-99.4086 123.0001,-99.4086 123,-96.9086 120.7501,-99.4087 123,-94.4086 123,-94.4086"/>
<text text-anchor="middle" x="138.5518" y="-114.8" font-family="Times,serif" font-size="14.00" fill="#000000">amod</text>
</g>
<!-- 8 -->
<g id="node9" class="node">
<title>8</title>
<polygon fill="none" stroke="#000000" points="276.0176,-94 191.9824,-94 191.9824,-72 276.0176,-72 276.0176,-94"/>
<text text-anchor="middle" x="234" y="-78.8" font-family="Times,serif" font-size="14.00" fill="#000000">(8) sentence</text>
</g>
<!-- 5&#45;&gt;8 -->
<g id="edge8" class="edge">
<title>5&#45;&gt;8</title>
<path fill="none" stroke="#000000" d="M140.3438,-143.75C159.8121,-131.1219 191.4212,-110.6187 212.4577,-96.9734"/>
<polygon fill="#000000" stroke="#000000" points="216.778,-94.171 213.8077,-98.7797 214.6806,-95.5315 212.5832,-96.892 212.5832,-96.892 212.5832,-96.892 214.6806,-95.5315 211.3588,-95.0043 216.778,-94.171 216.778,-94.171"/>
<text text-anchor="middle" x="204.9448" y="-114.8" font-family="Times,serif" font-size="14.00" fill="#000000">nmod</text>
</g>
<!-- 6 -->
<g id="node7" class="node">
<title>6</title>
<polygon fill="none" stroke="#000000" points="225,-22 171,-22 171,0 225,0 225,-22"/>
<text text-anchor="middle" x="198" y="-6.8" font-family="Times,serif" font-size="14.00" fill="#000000">(6) of</text>
</g>
<!-- 7 -->
<g id="node8" class="node">
<title>7</title>
<polygon fill="none" stroke="#000000" points="297,-22 243,-22 243,0 297,0 297,-22"/>
<text text-anchor="middle" x="270" y="-6.8" font-family="Times,serif" font-size="14.00" fill="#000000">(7) a</text>
</g>
<!-- 8&#45;&gt;6 -->
<g id="edge9" class="edge">
<title>8&#45;&gt;6</title>
<path fill="none" stroke="#000000" d="M228.375,-71.75C222.3868,-59.7735 212.8569,-40.7138 206.0693,-27.1386"/>
<polygon fill="#000000" stroke="#000000" points="203.7043,-22.4086 207.9529,-25.8745 204.8224,-24.6447 205.9404,-26.8808 205.9404,-26.8808 205.9404,-26.8808 204.8224,-24.6447 203.928,-27.887 203.7043,-22.4086 203.7043,-22.4086"/>
<text text-anchor="middle" x="232.0449" y="-42.8" font-family="Times,serif" font-size="14.00" fill="#000000">case</text>
</g>
<!-- 8&#45;&gt;7 -->
<g id="edge10" class="edge">
<title>8&#45;&gt;7</title>
<path fill="none" stroke="#000000" d="M239.625,-71.75C245.6132,-59.7735 255.1431,-40.7138 261.9307,-27.1386"/>
<polygon fill="#000000" stroke="#000000" points="264.2957,-22.4086 264.072,-27.887 263.1776,-24.6447 262.0596,-26.8808 262.0596,-26.8808 262.0596,-26.8808 263.1776,-24.6447 260.0471,-25.8745 264.2957,-22.4086 264.2957,-22.4086"/>
<text text-anchor="middle" x="264.5518" y="-42.8" font-family="Times,serif" font-size="14.00" fill="#000000">det</text>
</g>
<!-- 9 -->
<g id="node10" class="node">
<title>9</title>
<polygon fill="none" stroke="#000000" points="228,-310 174,-310 174,-288 228,-288 228,-310"/>
<text text-anchor="middle" x="201" y="-294.8" font-family="Times,serif" font-size="14.00" fill="#000000">(9) are</text>
</g>
<!-- 10 -->
<g id="node11" class="node">
<title>10</title>
<polygon fill="none" stroke="#000000" points="277.2455,-382 200.7545,-382 200.7545,-360 277.2455,-360 277.2455,-382"/>
<text text-anchor="middle" x="239" y="-366.8" font-family="Times,serif" font-size="14.00" fill="#000000">(10) called</text>
</g>
<!-- 10&#45;&gt;1 -->
<g id="edge11" class="edge">
<title>10&#45;&gt;1</title>
<path fill="none" stroke="#000000" d="M200.8029,-365.4667C183.1141,-361.3563 162.71,-354.2464 147.5518,-342 138.863,-334.9804 132.6694,-324.0087 128.6764,-314.9053"/>
<polygon fill="#000000" stroke="#000000" points="126.6826,-310.0771 130.6708,-313.8397 127.6369,-312.3878 128.5911,-314.6985 128.5911,-314.6985 128.5911,-314.6985 127.6369,-312.3878 126.5114,-315.5573 126.6826,-310.0771 126.6826,-310.0771"/>
<text text-anchor="middle" x="175.2241" y="-330.8" font-family="Times,serif" font-size="14.00" fill="#000000">nsubjpass</text>
</g>
<!-- 10&#45;&gt;9 -->
<g id="edge12" class="edge">
<title>10&#45;&gt;9</title>
<path fill="none" stroke="#000000" d="M225.1825,-359.8266C219.9107,-354.8845 214.3029,-348.6795 210.6758,-342 206.2004,-333.7583 203.7925,-323.5521 202.4982,-315.1516"/>
<polygon fill="#000000" stroke="#000000" points="201.8277,-310.1881 204.7269,-314.8419 202.1624,-312.6656 202.4971,-315.1431 202.4971,-315.1431 202.4971,-315.1431 202.1624,-312.6656 200.2674,-315.4443 201.8277,-310.1881 201.8277,-310.1881"/>
<text text-anchor="middle" x="233.1621" y="-330.8" font-family="Times,serif" font-size="14.00" fill="#000000">auxpass</text>
</g>
<!-- 12 -->
<g id="node13" class="node">
<title>12</title>
<polygon fill="none" stroke="#000000" points="325.8769,-310 246.1231,-310 246.1231,-288 325.8769,-288 325.8769,-310"/>
<text text-anchor="middle" x="286" y="-294.8" font-family="Times,serif" font-size="14.00" fill="#000000">(12) syntax</text>
</g>
<!-- 10&#45;&gt;12 -->
<g id="edge13" class="edge">
<title>10&#45;&gt;12</title>
<path fill="none" stroke="#000000" d="M246.3438,-359.75C254.2303,-347.6685 266.8221,-328.3789 275.6975,-314.7826"/>
<polygon fill="#000000" stroke="#000000" points="278.5527,-310.4086 277.7037,-315.8254 277.1861,-312.5021 275.8196,-314.5955 275.8196,-314.5955 275.8196,-314.5955 277.1861,-312.5021 273.9354,-313.3656 278.5527,-310.4086 278.5527,-310.4086"/>
<text text-anchor="middle" x="286.0518" y="-330.8" font-family="Times,serif" font-size="14.00" fill="#000000">xcomp</text>
</g>
<!-- 16 -->
<g id="node17" class="node">
<title>16</title>
<polygon fill="none" stroke="#000000" points="398,-310 344,-310 344,-288 398,-288 398,-310"/>
<text text-anchor="middle" x="371" y="-294.8" font-family="Times,serif" font-size="14.00" fill="#000000">(16) .</text>
</g>
<!-- 10&#45;&gt;16 -->
<g id="edge14" class="edge">
<title>10&#45;&gt;16</title>
<path fill="none" stroke="#000000" d="M269.6324,-359.9532C282.1225,-355.0305 296.5295,-348.8057 309,-342 324.3612,-333.6167 340.5742,-322.273 352.5667,-313.3416"/>
<polygon fill="#000000" stroke="#000000" points="356.7847,-310.1702 354.1405,-314.9734 354.7865,-311.6726 352.7883,-313.175 352.7883,-313.175 352.7883,-313.175 354.7865,-311.6726 351.4361,-311.3767 356.7847,-310.1702 356.7847,-310.1702"/>
<text text-anchor="middle" x="346.5518" y="-330.8" font-family="Times,serif" font-size="14.00" fill="#000000">punct</text>
</g>
<!-- 11 -->
<g id="node12" class="node">
<title>11</title>
<polygon fill="none" stroke="#000000" points="241,-238 187,-238 187,-216 241,-216 241,-238"/>
<text text-anchor="middle" x="214" y="-222.8" font-family="Times,serif" font-size="14.00" fill="#000000">(11) “</text>
</g>
<!-- 12&#45;&gt;11 -->
<g id="edge15" class="edge">
<title>12&#45;&gt;11</title>
<path fill="none" stroke="#000000" d="M271.5166,-287.9572C264.9926,-282.7537 257.328,-276.3125 250.8965,-270 241.9675,-261.2363 232.8034,-250.5667 225.8419,-242.0482"/>
<polygon fill="#000000" stroke="#000000" points="222.612,-238.057 227.5064,-240.5283 224.1847,-240.0004 225.7574,-241.9438 225.7574,-241.9438 225.7574,-241.9438 224.1847,-240.0004 224.0083,-243.3592 222.612,-238.057 222.612,-238.057"/>
<text text-anchor="middle" x="266.5518" y="-258.8" font-family="Times,serif" font-size="14.00" fill="#000000">punct</text>
</g>
<!-- 13 -->
<g id="node14" class="node">
<title>13</title>
<polygon fill="none" stroke="#000000" points="313,-238 259,-238 259,-216 313,-216 313,-238"/>
<text text-anchor="middle" x="286" y="-222.8" font-family="Times,serif" font-size="14.00" fill="#000000">(13) ”</text>
</g>
<!-- 12&#45;&gt;13 -->
<g id="edge16" class="edge">
<title>12&#45;&gt;13</title>
<path fill="none" stroke="#000000" d="M286,-287.75C286,-275.8786 286,-257.0476 286,-243.4971"/>
<polygon fill="#000000" stroke="#000000" points="286,-238.4086 288.2501,-243.4086 286,-240.9086 286.0001,-243.4086 286.0001,-243.4086 286.0001,-243.4086 286,-240.9086 283.7501,-243.4087 286,-238.4086 286,-238.4086"/>
<text text-anchor="middle" x="301.5518" y="-258.8" font-family="Times,serif" font-size="14.00" fill="#000000">punct</text>
</g>
<!-- 15 -->
<g id="node16" class="node">
<title>15</title>
<polygon fill="none" stroke="#000000" points="431.3835,-238 330.6165,-238 330.6165,-216 431.3835,-216 431.3835,-238"/>
<text text-anchor="middle" x="381" y="-222.8" font-family="Times,serif" font-size="14.00" fill="#000000">(15) linguistics</text>
</g>
<!-- 12&#45;&gt;15 -->
<g id="edge17" class="edge">
<title>12&#45;&gt;15</title>
<path fill="none" stroke="#000000" d="M300.8438,-287.75C317.2967,-275.2804 343.8812,-255.1322 361.8807,-241.4904"/>
<polygon fill="#000000" stroke="#000000" points="366.2605,-238.171 363.6347,-242.9843 364.2681,-239.6811 362.2756,-241.1911 362.2756,-241.1911 362.2756,-241.1911 364.2681,-239.6811 360.9166,-239.3979 366.2605,-238.171 366.2605,-238.171"/>
<text text-anchor="middle" x="358.9448" y="-258.8" font-family="Times,serif" font-size="14.00" fill="#000000">nmod</text>
</g>
<!-- 14 -->
<g id="node15" class="node">
<title>14</title>
<polygon fill="none" stroke="#000000" points="408,-166 354,-166 354,-144 408,-144 408,-166"/>
<text text-anchor="middle" x="381" y="-150.8" font-family="Times,serif" font-size="14.00" fill="#000000">(14) in</text>
</g>
<!-- 15&#45;&gt;14 -->
<g id="edge18" class="edge">
<title>15&#45;&gt;14</title>
<path fill="none" stroke="#000000" d="M381,-215.75C381,-203.8786 381,-185.0476 381,-171.4971"/>
<polygon fill="#000000" stroke="#000000" points="381,-166.4086 383.2501,-171.4086 381,-168.9086 381.0001,-171.4086 381.0001,-171.4086 381.0001,-171.4086 381,-168.9086 378.7501,-171.4087 381,-166.4086 381,-166.4086"/>
<text text-anchor="middle" x="393.0449" y="-186.8" font-family="Times,serif" font-size="14.00" fill="#000000">case</text>
</g>
<!-- 17 -->
<g id="node18" class="node">
<title>17</title>
<polygon fill="none" stroke="#000000" points="594.4346,-310 499.5654,-310 499.5654,-288 594.4346,-288 594.4346,-310"/>
<text text-anchor="middle" x="547" y="-294.8" font-family="Times,serif" font-size="14.00" fill="#000000">(17) Knowing</text>
</g>
<!-- 19 -->
<g id="node20" class="node">
<title>19</title>
<polygon fill="none" stroke="#000000" points="592.8039,-238 501.1961,-238 501.1961,-216 592.8039,-216 592.8039,-238"/>
<text text-anchor="middle" x="547" y="-222.8" font-family="Times,serif" font-size="14.00" fill="#000000">(19) structure</text>
</g>
<!-- 17&#45;&gt;19 -->
<g id="edge19" class="edge">
<title>17&#45;&gt;19</title>
<path fill="none" stroke="#000000" d="M547,-287.75C547,-275.8786 547,-257.0476 547,-243.4971"/>
<polygon fill="#000000" stroke="#000000" points="547,-238.4086 549.2501,-243.4086 547,-240.9086 547.0001,-243.4086 547.0001,-243.4086 547.0001,-243.4086 547,-240.9086 544.7501,-243.4087 547,-238.4086 547,-238.4086"/>
<text text-anchor="middle" x="559.4448" y="-258.8" font-family="Times,serif" font-size="14.00" fill="#000000">dobj</text>
</g>
<!-- 18 -->
<g id="node19" class="node">
<title>18</title>
<polygon fill="none" stroke="#000000" points="485.9278,-166 426.0722,-166 426.0722,-144 485.9278,-144 485.9278,-166"/>
<text text-anchor="middle" x="456" y="-150.8" font-family="Times,serif" font-size="14.00" fill="#000000">(18) the</text>
</g>
<!-- 19&#45;&gt;18 -->
<g id="edge20" class="edge">
<title>19&#45;&gt;18</title>
<path fill="none" stroke="#000000" d="M532.7813,-215.75C517.021,-203.2804 491.5559,-183.1322 474.3143,-169.4904"/>
<polygon fill="#000000" stroke="#000000" points="470.1189,-166.171 475.4361,-167.5089 472.0795,-167.7222 474.04,-169.2734 474.04,-169.2734 474.04,-169.2734 472.0795,-167.7222 472.6439,-171.038 470.1189,-166.171 470.1189,-166.171"/>
<text text-anchor="middle" x="518.5518" y="-186.8" font-family="Times,serif" font-size="14.00" fill="#000000">det</text>
</g>
<!-- 22 -->
<g id="node23" class="node">
<title>22</title>
<polygon fill="none" stroke="#000000" points="594.5176,-166 503.4824,-166 503.4824,-144 594.5176,-144 594.5176,-166"/>
<text text-anchor="middle" x="549" y="-150.8" font-family="Times,serif" font-size="14.00" fill="#000000">(22) sentence</text>
</g>
<!-- 19&#45;&gt;22 -->
<g id="edge21" class="edge">
<title>19&#45;&gt;22</title>
<path fill="none" stroke="#000000" d="M547.3125,-215.75C547.6423,-203.8786 548.1653,-185.0476 548.5417,-171.4971"/>
<polygon fill="#000000" stroke="#000000" points="548.6831,-166.4086 550.7933,-171.4692 548.6136,-168.9077 548.5442,-171.4067 548.5442,-171.4067 548.5442,-171.4067 548.6136,-168.9077 546.295,-171.3442 548.6831,-166.4086 548.6831,-166.4086"/>
<text text-anchor="middle" x="564.9448" y="-186.8" font-family="Times,serif" font-size="14.00" fill="#000000">nmod</text>
</g>
<!-- 20 -->
<g id="node21" class="node">
<title>20</title>
<polygon fill="none" stroke="#000000" points="546.4885,-94 491.5115,-94 491.5115,-72 546.4885,-72 546.4885,-94"/>
<text text-anchor="middle" x="519" y="-78.8" font-family="Times,serif" font-size="14.00" fill="#000000">(20) of</text>
</g>
<!-- 21 -->
<g id="node22" class="node">
<title>21</title>
<polygon fill="none" stroke="#000000" points="618,-94 564,-94 564,-72 618,-72 618,-94"/>
<text text-anchor="middle" x="591" y="-78.8" font-family="Times,serif" font-size="14.00" fill="#000000">(21) a</text>
</g>
<!-- 22&#45;&gt;20 -->
<g id="edge22" class="edge">
<title>22&#45;&gt;20</title>
<path fill="none" stroke="#000000" d="M544.3125,-143.75C539.3223,-131.7735 531.3808,-112.7138 525.7244,-99.1386"/>
<polygon fill="#000000" stroke="#000000" points="523.7536,-94.4086 527.7537,-98.1586 524.7152,-96.7163 525.6767,-99.024 525.6767,-99.024 525.6767,-99.024 524.7152,-96.7163 523.5998,-99.8894 523.7536,-94.4086 523.7536,-94.4086"/>
<text text-anchor="middle" x="549.0449" y="-114.8" font-family="Times,serif" font-size="14.00" fill="#000000">case</text>
</g>
<!-- 22&#45;&gt;21 -->
<g id="edge23" class="edge">
<title>22&#45;&gt;21</title>
<path fill="none" stroke="#000000" d="M555.5625,-143.75C562.6101,-131.6685 573.8623,-112.3789 581.7935,-98.7826"/>
<polygon fill="#000000" stroke="#000000" points="584.345,-94.4086 583.7691,-99.8613 583.0853,-96.5681 581.8256,-98.7275 581.8256,-98.7275 581.8256,-98.7275 583.0853,-96.5681 579.8821,-97.5938 584.345,-94.4086 584.345,-94.4086"/>
<text text-anchor="middle" x="582.5518" y="-114.8" font-family="Times,serif" font-size="14.00" fill="#000000">det</text>
</g>
<!-- 23 -->
<g id="node24" class="node">
<title>23</title>
<polygon fill="none" stroke="#000000" points="701.377,-382 628.623,-382 628.623,-360 701.377,-360 701.377,-382"/>
<text text-anchor="middle" x="665" y="-366.8" font-family="Times,serif" font-size="14.00" fill="#000000">(23) helps</text>
</g>
<!-- 23&#45;&gt;17 -->
<g id="edge24" class="edge">
<title>23&#45;&gt;17</title>
<path fill="none" stroke="#000000" d="M646.8211,-359.9078C626.0932,-347.2603 592.1807,-326.5679 569.725,-312.8661"/>
<polygon fill="#000000" stroke="#000000" points="565.394,-310.2234 570.8341,-310.9071 567.5281,-311.5256 569.6622,-312.8278 569.6622,-312.8278 569.6622,-312.8278 567.5281,-311.5256 568.4902,-314.7485 565.394,-310.2234 565.394,-310.2234"/>
<text text-anchor="middle" x="631.7759" y="-330.8" font-family="Times,serif" font-size="14.00" fill="#000000">csubj</text>
</g>
<!-- 25 -->
<g id="node26" class="node">
<title>25</title>
<polygon fill="none" stroke="#000000" points="717.2523,-310 612.7477,-310 612.7477,-288 717.2523,-288 717.2523,-310"/>
<text text-anchor="middle" x="665" y="-294.8" font-family="Times,serif" font-size="14.00" fill="#000000">(25) understand</text>
</g>
<!-- 23&#45;&gt;25 -->
<g id="edge25" class="edge">
<title>23&#45;&gt;25</title>
<path fill="none" stroke="#000000" d="M665,-359.75C665,-347.8786 665,-329.0476 665,-315.4971"/>
<polygon fill="#000000" stroke="#000000" points="665,-310.4086 667.2501,-315.4086 665,-312.9086 665.0001,-315.4086 665.0001,-315.4086 665.0001,-315.4086 665,-312.9086 662.7501,-315.4087 665,-310.4086 665,-310.4086"/>
<text text-anchor="middle" x="684.0518" y="-330.8" font-family="Times,serif" font-size="14.00" fill="#000000">xcomp</text>
</g>
<!-- 37 -->
<g id="node38" class="node">
<title>37</title>
<polygon fill="none" stroke="#000000" points="789,-310 735,-310 735,-288 789,-288 789,-310"/>
<text text-anchor="middle" x="762" y="-294.8" font-family="Times,serif" font-size="14.00" fill="#000000">(37) .</text>
</g>
<!-- 23&#45;&gt;37 -->
<g id="edge26" class="edge">
<title>23&#45;&gt;37</title>
<path fill="none" stroke="#000000" d="M681.5141,-359.9294C689.3184,-354.6134 698.7184,-348.0883 707,-342 719.5869,-332.7467 733.4413,-321.911 744.0963,-313.4319"/>
<polygon fill="#000000" stroke="#000000" points="748.1598,-310.1891 745.6552,-315.0665 746.2057,-311.7485 744.2517,-313.3079 744.2517,-313.3079 744.2517,-313.3079 746.2057,-311.7485 742.8482,-311.5492 748.1598,-310.1891 748.1598,-310.1891"/>
<text text-anchor="middle" x="740.5518" y="-330.8" font-family="Times,serif" font-size="14.00" fill="#000000">punct</text>
</g>
<!-- 24 -->
<g id="node25" class="node">
<title>24</title>
<polygon fill="none" stroke="#000000" points="684,-238 630,-238 630,-216 684,-216 684,-238"/>
<text text-anchor="middle" x="657" y="-222.8" font-family="Times,serif" font-size="14.00" fill="#000000">(24) to</text>
</g>
<!-- 25&#45;&gt;24 -->
<g id="edge27" class="edge">
<title>25&#45;&gt;24</title>
<path fill="none" stroke="#000000" d="M663.75,-287.75C662.431,-275.8786 660.3386,-257.0476 658.833,-243.4971"/>
<polygon fill="#000000" stroke="#000000" points="658.2676,-238.4086 661.0561,-243.1295 658.5437,-240.8933 658.8199,-243.378 658.8199,-243.378 658.8199,-243.378 658.5437,-240.8933 656.5836,-243.6265 658.2676,-238.4086 658.2676,-238.4086"/>
<text text-anchor="middle" x="676.3828" y="-258.8" font-family="Times,serif" font-size="14.00" fill="#000000">mark</text>
</g>
<!-- 33 -->
<g id="node34" class="node">
<title>33</title>
<polygon fill="none" stroke="#000000" points="782.4073,-238 701.5927,-238 701.5927,-216 782.4073,-216 782.4073,-238"/>
<text text-anchor="middle" x="742" y="-222.8" font-family="Times,serif" font-size="14.00" fill="#000000">(33) related</text>
</g>
<!-- 25&#45;&gt;33 -->
<g id="edge28" class="edge">
<title>25&#45;&gt;33</title>
<path fill="none" stroke="#000000" d="M677.0313,-287.75C690.2538,-275.3861 711.5496,-255.4731 726.1309,-241.8386"/>
<polygon fill="#000000" stroke="#000000" points="730.0532,-238.171 727.9378,-243.2295 728.2272,-239.8785 726.4011,-241.586 726.4011,-241.586 726.4011,-241.586 728.2272,-239.8785 724.8643,-239.9425 730.0532,-238.171 730.0532,-238.171"/>
<text text-anchor="middle" x="728.6587" y="-258.8" font-family="Times,serif" font-size="14.00" fill="#000000">ccomp</text>
</g>
<!-- 26 -->
<g id="node27" class="node">
<title>26</title>
<polygon fill="none" stroke="#000000" points="683.4346,-166 616.5654,-166 616.5654,-144 683.4346,-144 683.4346,-166"/>
<text text-anchor="middle" x="650" y="-150.8" font-family="Times,serif" font-size="14.00" fill="#000000">(26) how</text>
</g>
<!-- 27 -->
<g id="node28" class="node">
<title>27</title>
<polygon fill="none" stroke="#000000" points="706.9278,-94 647.0722,-94 647.0722,-72 706.9278,-72 706.9278,-94"/>
<text text-anchor="middle" x="677" y="-78.8" font-family="Times,serif" font-size="14.00" fill="#000000">(27) the</text>
</g>
<!-- 28 -->
<g id="node29" class="node">
<title>28</title>
<polygon fill="none" stroke="#000000" points="778.5449,-166 701.4551,-166 701.4551,-144 778.5449,-144 778.5449,-166"/>
<text text-anchor="middle" x="740" y="-150.8" font-family="Times,serif" font-size="14.00" fill="#000000">(28) words</text>
</g>
<!-- 28&#45;&gt;27 -->
<g id="edge29" class="edge">
<title>28&#45;&gt;27</title>
<path fill="none" stroke="#000000" d="M730.1563,-143.75C719.493,-131.5634 702.4125,-112.0429 690.5006,-98.4292"/>
<polygon fill="#000000" stroke="#000000" points="686.9825,-94.4086 691.9684,-96.6899 688.6288,-96.2901 690.2751,-98.1715 690.2751,-98.1715 690.2751,-98.1715 688.6288,-96.2901 688.5818,-99.6532 686.9825,-94.4086 686.9825,-94.4086"/>
<text text-anchor="middle" x="722.5518" y="-114.8" font-family="Times,serif" font-size="14.00" fill="#000000">det</text>
</g>
<!-- 31 -->
<g id="node32" class="node">
<title>31</title>
<polygon fill="none" stroke="#000000" points="815.5176,-94 724.4824,-94 724.4824,-72 815.5176,-72 815.5176,-94"/>
<text text-anchor="middle" x="770" y="-78.8" font-family="Times,serif" font-size="14.00" fill="#000000">(31) sentence</text>
</g>
<!-- 28&#45;&gt;31 -->
<g id="edge30" class="edge">
<title>28&#45;&gt;31</title>
<path fill="none" stroke="#000000" d="M744.6875,-143.75C749.6777,-131.7735 757.6192,-112.7138 763.2756,-99.1386"/>
<polygon fill="#000000" stroke="#000000" points="765.2464,-94.4086 765.4002,-99.8894 764.2848,-96.7163 763.3233,-99.024 763.3233,-99.024 763.3233,-99.024 764.2848,-96.7163 761.2463,-98.1586 765.2464,-94.4086 765.2464,-94.4086"/>
<text text-anchor="middle" x="772.9448" y="-114.8" font-family="Times,serif" font-size="14.00" fill="#000000">nmod</text>
</g>
<!-- 29 -->
<g id="node30" class="node">
<title>29</title>
<polygon fill="none" stroke="#000000" points="761,-22 707,-22 707,0 761,0 761,-22"/>
<text text-anchor="middle" x="734" y="-6.8" font-family="Times,serif" font-size="14.00" fill="#000000">(29) in</text>
</g>
<!-- 30 -->
<g id="node31" class="node">
<title>30</title>
<polygon fill="none" stroke="#000000" points="833,-22 779,-22 779,0 833,0 833,-22"/>
<text text-anchor="middle" x="806" y="-6.8" font-family="Times,serif" font-size="14.00" fill="#000000">(30) a</text>
</g>
<!-- 31&#45;&gt;29 -->
<g id="edge31" class="edge">
<title>31&#45;&gt;29</title>
<path fill="none" stroke="#000000" d="M764.375,-71.75C758.3868,-59.7735 748.8569,-40.7138 742.0693,-27.1386"/>
<polygon fill="#000000" stroke="#000000" points="739.7043,-22.4086 743.9529,-25.8745 740.8224,-24.6447 741.9404,-26.8808 741.9404,-26.8808 741.9404,-26.8808 740.8224,-24.6447 739.928,-27.887 739.7043,-22.4086 739.7043,-22.4086"/>
<text text-anchor="middle" x="767.0449" y="-42.8" font-family="Times,serif" font-size="14.00" fill="#000000">case</text>
</g>
<!-- 31&#45;&gt;30 -->
<g id="edge32" class="edge">
<title>31&#45;&gt;30</title>
<path fill="none" stroke="#000000" d="M775.625,-71.75C781.6132,-59.7735 791.1431,-40.7138 797.9307,-27.1386"/>
<polygon fill="#000000" stroke="#000000" points="800.2957,-22.4086 800.072,-27.887 799.1776,-24.6447 798.0596,-26.8808 798.0596,-26.8808 798.0596,-26.8808 799.1776,-24.6447 796.0471,-25.8745 800.2957,-22.4086 800.2957,-22.4086"/>
<text text-anchor="middle" x="799.5518" y="-42.8" font-family="Times,serif" font-size="14.00" fill="#000000">det</text>
</g>
<!-- 32 -->
<g id="node33" class="node">
<title>32</title>
<polygon fill="none" stroke="#000000" points="855.9141,-166 796.0859,-166 796.0859,-144 855.9141,-144 855.9141,-166"/>
<text text-anchor="middle" x="826" y="-150.8" font-family="Times,serif" font-size="14.00" fill="#000000">(32) are</text>
</g>
<!-- 33&#45;&gt;26 -->
<g id="edge33" class="edge">
<title>33&#45;&gt;26</title>
<path fill="none" stroke="#000000" d="M719.2127,-215.9311C710.0293,-211.005 699.5776,-204.7837 690.8965,-198 680.432,-189.8227 670.1367,-178.9779 662.4934,-170.2253"/>
<polygon fill="#000000" stroke="#000000" points="658.9652,-166.1175 663.9299,-168.4444 660.5942,-168.014 662.2231,-169.9105 662.2231,-169.9105 662.2231,-169.9105 660.5942,-168.014 660.5162,-171.3765 658.9652,-166.1175 658.9652,-166.1175"/>
<text text-anchor="middle" x="712.5518" y="-186.8" font-family="Times,serif" font-size="14.00" fill="#000000">advmod</text>
</g>
<!-- 33&#45;&gt;28 -->
<g id="edge34" class="edge">
<title>33&#45;&gt;28</title>
<path fill="none" stroke="#000000" d="M741.6875,-215.75C741.3577,-203.8786 740.8347,-185.0476 740.4583,-171.4971"/>
<polygon fill="#000000" stroke="#000000" points="740.3169,-166.4086 742.705,-171.3442 740.3864,-168.9077 740.4558,-171.4067 740.4558,-171.4067 740.4558,-171.4067 740.3864,-168.9077 738.2067,-171.4692 740.3169,-166.4086 740.3169,-166.4086"/>
<text text-anchor="middle" x="756.1689" y="-186.8" font-family="Times,serif" font-size="14.00" fill="#000000">nsubj</text>
</g>
<!-- 33&#45;&gt;32 -->
<g id="edge35" class="edge">
<title>33&#45;&gt;32</title>
<path fill="none" stroke="#000000" d="M755.125,-215.75C769.6729,-203.2804 793.1791,-183.1322 809.0945,-169.4904"/>
<polygon fill="#000000" stroke="#000000" points="812.9672,-166.171 810.6352,-171.1333 811.069,-167.798 809.1709,-169.425 809.1709,-169.425 809.1709,-169.425 811.069,-167.798 807.7066,-167.7167 812.9672,-166.171 812.9672,-166.171"/>
<text text-anchor="middle" x="801.1069" y="-186.8" font-family="Times,serif" font-size="14.00" fill="#000000">cop</text>
</g>
<!-- 36 -->
<g id="node37" class="node">
<title>36</title>
<polygon fill="none" stroke="#000000" points="945.591,-166 874.409,-166 874.409,-144 945.591,-144 945.591,-166"/>
<text text-anchor="middle" x="910" y="-150.8" font-family="Times,serif" font-size="14.00" fill="#000000">(36) other</text>
</g>
<!-- 33&#45;&gt;36 -->
<g id="edge36" class="edge">
<title>33&#45;&gt;36</title>
<path fill="none" stroke="#000000" d="M770.9045,-215.8775C784.3678,-210.6048 800.5651,-204.1301 815,-198 837.5817,-188.4102 862.8767,-176.9238 881.6845,-168.2361"/>
<polygon fill="#000000" stroke="#000000" points="886.3208,-166.0905 882.7282,-170.2324 884.052,-167.1405 881.7831,-168.1905 881.7831,-168.1905 881.7831,-168.1905 884.052,-167.1405 880.8381,-166.1485 886.3208,-166.0905 886.3208,-166.0905"/>
<text text-anchor="middle" x="861.9448" y="-186.8" font-family="Times,serif" font-size="14.00" fill="#000000">nmod</text>
</g>
<!-- 34 -->
<g id="node35" class="node">
<title>34</title>
<polygon fill="none" stroke="#000000" points="927,-94 873,-94 873,-72 927,-72 927,-94"/>
<text text-anchor="middle" x="900" y="-78.8" font-family="Times,serif" font-size="14.00" fill="#000000">(34) to</text>
</g>
<!-- 35 -->
<g id="node36" class="node">
<title>35</title>
<polygon fill="none" stroke="#000000" points="1013.4674,-94 944.5326,-94 944.5326,-72 1013.4674,-72 1013.4674,-94"/>
<text text-anchor="middle" x="979" y="-78.8" font-family="Times,serif" font-size="14.00" fill="#000000">(35) each</text>
</g>
<!-- 36&#45;&gt;34 -->
<g id="edge37" class="edge">
<title>36&#45;&gt;34</title>
<path fill="none" stroke="#000000" d="M908.4375,-143.75C906.7887,-131.8786 904.1733,-113.0476 902.2913,-99.4971"/>
<polygon fill="#000000" stroke="#000000" points="901.5845,-94.4086 904.5011,-99.0515 901.9285,-96.8848 902.2725,-99.3611 902.2725,-99.3611 902.2725,-99.3611 901.9285,-96.8848 900.0438,-99.6706 901.5845,-94.4086 901.5845,-94.4086"/>
<text text-anchor="middle" x="917.0449" y="-114.8" font-family="Times,serif" font-size="14.00" fill="#000000">case</text>
</g>
<!-- 36&#45;&gt;35 -->
<g id="edge38" class="edge">
<title>36&#45;&gt;35</title>
<path fill="none" stroke="#000000" d="M920.7813,-143.75C932.5607,-131.4584 951.4903,-111.7058 964.5498,-98.0785"/>
<polygon fill="#000000" stroke="#000000" points="968.0667,-94.4086 966.2317,-99.5754 966.337,-96.2136 964.6072,-98.0186 964.6072,-98.0186 964.6072,-98.0186 966.337,-96.2136 962.9827,-96.4618 968.0667,-94.4086 968.0667,-94.4086"/>
<text text-anchor="middle" x="958.5518" y="-114.8" font-family="Times,serif" font-size="14.00" fill="#000000">det</text>
</g>
<!-- &#45;1 -->
<g id="node39" class="node">
<title>&#45;1</title>
<polygon fill="none" stroke="#000000" points="266,-454 212,-454 212,-432 266,-432 266,-454"/>
<text text-anchor="middle" x="239" y="-438.8" font-family="Times,serif" font-size="14.00" fill="#000000">S1</text>
</g>
<!-- &#45;1&#45;&gt;10 -->
<g id="edge1" class="edge">
<title>&#45;1&#45;&gt;10</title>
<path fill="none" stroke="#000000" d="M239,-431.75C239,-419.8786 239,-401.0476 239,-387.4971"/>
<polygon fill="#000000" stroke="#000000" points="239,-382.4086 241.2501,-387.4086 239,-384.9086 239.0001,-387.4086 239.0001,-387.4086 239.0001,-387.4086 239,-384.9086 236.7501,-387.4087 239,-382.4086 239,-382.4086"/>
<text text-anchor="middle" x="250.2759" y="-402.8" font-family="Times,serif" font-size="14.00" fill="#000000">root</text>
</g>
<!-- &#45;2 -->
<g id="node40" class="node">
<title>&#45;2</title>
<polygon fill="none" stroke="#000000" points="692,-454 638,-454 638,-432 692,-432 692,-454"/>
<text text-anchor="middle" x="665" y="-438.8" font-family="Times,serif" font-size="14.00" fill="#000000">S2</text>
</g>
<!-- &#45;2&#45;&gt;23 -->
<g id="edge2" class="edge">
<title>&#45;2&#45;&gt;23</title>
<path fill="none" stroke="#000000" d="M665,-431.75C665,-419.8786 665,-401.0476 665,-387.4971"/>
<polygon fill="#000000" stroke="#000000" points="665,-382.4086 667.2501,-387.4086 665,-384.9086 665.0001,-387.4086 665.0001,-387.4086 665.0001,-387.4086 665,-384.9086 662.7501,-387.4087 665,-382.4086 665,-382.4086"/>
<text text-anchor="middle" x="676.2759" y="-402.8" font-family="Times,serif" font-size="14.00" fill="#000000">root</text>
</g>
</g>
</svg>

